# xmcd CD database file
#
# Track frame offsets:
#	150
#	19425
#	46685
#	65907
#
# Disc length: 1238 seconds
#
# Revision: 7
# Processed by: cddbd v1.5.1PL0 Copyright (c) Steve Scherf et al.
# Submitted via: CDex 1.51
#
DISCID=3304d404
DTITLE=田村　直美 - 揺らぐことない愛 (Single)
DYEAR=2002
DGENRE=Pop
TTITLE0=揺らぐことない愛
TTITLE1=Things Of A Flow
TTITLE2=揺らぐことない愛 (Instrumental)
TTITLE3=Things Of A Flow (Instrumental)
EXTD=YEAR: 2002
EXTT0=
EXTT1=
EXTT2=
EXTT3=
PLAYORDER=
